<?xml version="1.0" standalone="no"?>
<!DOCTYPE svg PUBLIC "-//W3C//DTD SVG 20010904//EN"
 "http://www.w3.org/TR/2001/REC-SVG-20010904/DTD/svg10.dtd">
<svg version="1.0" xmlns="http://www.w3.org/2000/svg"
 width="351.000000pt" height="151.000000pt" viewBox="0 0 351.000000 151.000000"
 preserveAspectRatio="xMidYMid meet">

<g transform="translate(0.000000,151.000000) scale(0.100000,-0.100000)"
fill="#000000" stroke="none">
<path d="M1534 1344 c-401 -67 -752 -346 -890 -707 -15 -40 -29 -74 -31 -76
-4 -5 -72 71 -73 82 0 4 8 7 18 7 11 1 30 27 57 85 l41 85 -278 0 -278 0 0
-83 0 -83 70 -11 c91 -14 167 -52 241 -120 74 -69 128 -174 136 -264 l6 -59
83 0 82 0 6 38 c3 20 8 64 12 97 34 314 270 630 574 767 144 65 238 83 425 82
143 -1 169 -4 250 -28 414 -125 693 -459 731 -879 l7 -77 87 0 87 0 6 60 c11
130 118 280 243 341 35 17 95 36 133 42 l71 11 0 83 0 83 -281 0 c-154 0 -279
-3 -277 -7 2 -5 21 -43 41 -85 32 -68 40 -78 63 -78 l26 0 -38 -42 c-21 -24
-41 -44 -45 -46 -3 -1 -12 12 -19 30 -111 284 -297 495 -560 637 -208 111
-486 156 -726 115z"/>
<path d="M988 766 c-24 -30 -51 -69 -61 -85 l-18 -31 810 0 c446 0 811 3 811
6 0 9 -59 92 -92 130 l-30 34 -689 0 -689 0 -42 -54z"/>
</g>
</svg>
