<?xml version="1.0" standalone="no"?>
<!DOCTYPE svg PUBLIC "-//W3C//DTD SVG 20010904//EN"
 "http://www.w3.org/TR/2001/REC-SVG-20010904/DTD/svg10.dtd">
<svg version="1.0" xmlns="http://www.w3.org/2000/svg"
 width="716.000000pt" height="704.000000pt" viewBox="0 0 716.000000 704.000000"
 preserveAspectRatio="xMidYMid meet">

<g transform="translate(0.000000,704.000000) scale(0.100000,-0.100000)"
fill="#000000" stroke="none">
<path d="M3315 6649 c-599 -26 -1199 -232 -1692 -581 -235 -165 -486 -400
-656 -613 -755 -942 -916 -2205 -421 -3306 198 -443 525 -864 909 -1171 486
-389 1047 -622 1670 -693 163 -19 498 -21 660 -5 644 63 1230 303 1739 713
133 106 359 334 469 472 378 472 603 1006 683 1620 24 179 24 571 0 750 -96
734 -400 1358 -911 1871 -158 158 -285 264 -466 387 -487 333 -1077 533 -1629
553 -74 3 -148 6 -165 7 -16 2 -102 0 -190 -4z m532 -244 c1505 -192 2623
-1447 2623 -2945 0 -1404 -990 -2613 -2376 -2904 -218 -45 -362 -59 -609 -60
-299 0 -484 23 -764 95 -555 143 -1075 455 -1454 874 -425 470 -679 1025 -759
1655 -17 137 -17 543 0 680 109 868 576 1633 1284 2108 462 310 934 471 1513
516 96 7 425 -4 542 -19z"/>
<path d="M3231 6259 c-851 -76 -1621 -538 -2103 -1264 -97 -147 -242 -439
-298 -600 -172 -497 -205 -1005 -99 -1516 100 -484 343 -951 698 -1337 l86
-94 58 64 c653 715 1023 1746 1132 3158 15 191 35 695 35 878 l0 92 100 0 c89
0 100 -2 100 -17 0 -10 -7 -128 -15 -263 -120 -1959 -515 -3269 -1190 -3943
-48 -48 -86 -89 -84 -90 2 -2 39 -31 82 -66 l77 -62 0 102 0 102 60 63 c33 34
60 59 60 56 1 -4 0 -97 0 -207 l-1 -201 41 -23 40 -22 0 284 c0 251 2 286 16
298 9 8 36 43 60 79 l44 65 0 -401 0 -400 35 -17 c20 -9 38 -17 40 -17 3 0 5
212 5 470 l0 470 61 115 c33 63 63 115 66 115 3 0 4 -277 1 -615 l-6 -616 39
-19 c21 -11 41 -20 44 -20 3 0 5 330 5 734 l0 733 55 143 c30 79 57 145 60
148 3 3 5 -402 5 -900 l0 -906 47 -16 c26 -9 50 -16 55 -16 4 0 8 496 8 1103
l0 1102 57 223 c31 122 59 220 61 217 3 -3 8 -609 11 -1348 6 -1332 6 -1342
26 -1345 20 -3 20 4 23 639 1 352 4 644 6 648 3 4 294 7 648 6 l643 0 8 -450
c4 -247 5 -539 1 -647 -5 -194 -5 -198 15 -198 11 0 22 4 25 8 3 5 6 608 7
1340 1 733 5 1335 10 1337 4 3 12 -11 18 -32 5 -21 30 -118 55 -216 l46 -179
0 -1104 c0 -607 4 -1104 8 -1104 5 0 29 7 55 16 l47 16 0 906 c0 498 3 902 7
899 3 -4 30 -73 60 -153 l53 -147 0 -728 c0 -401 3 -729 8 -729 4 1 22 9 41
19 l34 18 -2 617 c-1 339 0 616 2 616 3 0 31 -48 61 -107 l56 -106 0 -479 c0
-376 3 -478 13 -478 6 0 27 9 45 20 l33 20 -3 395 c-2 217 0 395 5 395 4 0 7
-3 7 -8 0 -4 25 -40 55 -80 l55 -73 2 -280 3 -279 39 26 39 27 -6 198 c-3 110
-3 199 1 199 3 0 32 -26 64 -57 l58 -57 0 -98 c0 -54 3 -98 8 -98 4 0 40 27
80 61 l73 60 -97 97 c-437 441 -761 1167 -963 2157 -79 386 -145 862 -186
1340 -15 175 -45 633 -45 688 l0 27 98 0 99 0 7 -287 c8 -327 20 -574 41 -813
106 -1195 420 -2137 933 -2804 87 -112 233 -276 247 -276 17 0 195 201 286
323 280 375 457 802 531 1282 18 116 22 183 22 395 0 288 -16 421 -79 677
-195 796 -746 1477 -1490 1843 -193 95 -340 149 -540 200 -312 80 -634 106
-944 79z m763 -951 c3 -18 12 -127 21 -243 9 -115 28 -311 41 -435 13 -124 24
-233 24 -243 0 -16 -10 -17 -102 -15 l-103 3 -3 338 -2 337 -390 0 -390 0 0
-340 0 -340 -105 0 c-102 0 -105 1 -105 23 0 12 11 125 25 250 13 125 31 319
40 430 9 111 18 217 21 235 l5 32 509 0 509 0 5 -32z m100 -1055 c34 -165 52
-560 39 -838 l-8 -150 -125 0 -125 0 -3 358 -2 357 -390 0 -390 0 -2 -357 -3
-358 -125 0 -125 0 -8 110 c-18 238 3 714 39 883 l4 22 609 0 609 0 6 -27z
m38 -1445 c4 -203 4 -441 0 -530 l-7 -163 -125 0 -125 0 -3 373 -2 372 -390 0
-390 0 -2 -372 -3 -373 -125 0 -125 0 -7 130 c-7 127 0 913 9 927 2 4 293 7
646 5 l642 -2 7 -367z"/>
<path d="M3090 1140 l0 -460 23 -5 c45 -11 255 -25 367 -25 112 0 322 14 368
25 l22 5 0 460 0 460 -390 0 -390 0 0 -460z"/>
</g>
</svg>
