<?xml version="1.0" encoding="iso-8859-1"?>
<!-- Generator: Adobe Illustrator 19.0.0, SVG Export Plug-In . SVG Version: 6.00 Build 0)  -->
<svg version="1.1" id="Layer_1" xmlns="http://www.w3.org/2000/svg" xmlns:xlink="http://www.w3.org/1999/xlink" x="0px" y="0px"
	 viewBox="0 0 512 512" style="enable-background:new 0 0 512 512;" xml:space="preserve">
<g>
	<g>
		<path d="M203.742,220.016c-19.843,0-35.986,16.143-35.986,35.985s16.143,35.985,35.986,35.985s35.985-16.143,35.985-35.985
			S223.585,220.016,203.742,220.016z M203.743,276.312c-11.2,0-20.311-9.112-20.311-20.31c0-11.199,9.111-20.31,20.311-20.31
			c11.199,0,20.31,9.111,20.31,20.31S214.942,276.312,203.743,276.312z"/>
	</g>
</g>
<g>
	<g>
		<path d="M349.721,182.459c-10.4-10.223-24.64-15.964-39.21-15.964c-4.233,0-8.488,0.487-12.647,1.448
			c-14.572,3.367-26.962,12.208-34.886,24.892c-8.23,13.174-10.602,29.67-6.464,44.642c6.708,24.278,28.538,41.027,53.912,41.027
			c19.195,0,37.369-10.07,47.533-26.34C371.684,230.193,368.17,200.594,349.721,182.459z M308.487,262.77
			c-0.083,1.291-14.465-3.471-15.733-4.103c-15.627-7.778-24.917-25.423-22.043-42.708c1.659-9.981,7.112-19.178,15.119-25.371
			c14.794,18.542,22.873,41.524,22.873,65.413C308.703,258.256,308.63,260.517,308.487,262.77z M324.293,260.368
			c0.052-1.457,0.086-2.912,0.086-4.367c0-26.306-8.524-51.653-24.194-72.474c0.402-0.107,0.802-0.217,1.209-0.31
			c21.505-4.967,43.397,8.729,48.359,30.208C354.274,232.996,343.166,253.521,324.293,260.368z"/>
	</g>
</g>
<g>
	<g>
		<path d="M315.952,310.931c-10.683-14.027-26.931-22.072-44.583-22.072c-17.494-0.001-33.698,8.461-44.117,21.804
			c-4.264,5.459-7.557,11.735-9.576,18.583c-4.966,16.85-1.446,35.574,9.182,49.533c10.681,14.026,26.93,22.071,44.587,22.072
			c12.331,0,24.049-3.959,33.885-11.449c11.899-9.061,19.557-22.214,21.564-37.034C328.899,337.545,325.014,322.83,315.952,310.931z
			 M311.359,350.264c-1.444,10.672-6.959,20.142-15.526,26.668c-7.083,5.394-15.516,8.245-24.391,8.245
			c-12.034-0.001-23.155-5.195-30.832-14.309c7.346-2.36,14.473-5.413,21.275-9.161c3.79-2.089,5.17-6.856,3.081-10.646
			c-2.089-3.791-6.856-5.171-10.646-3.082c-6.811,3.754-13.987,6.726-21.407,8.87c-2.342-7.543-2.384-15.565-0.266-23.035
			c0.015-0.052,0.03-0.103,0.046-0.156c6.411-22.357,31.461-34.647,53.223-26.4c2.547,0.965,4.992,2.193,7.283,3.666
			c-4.305,6.995-9.425,13.473-15.273,19.317c-3.062,3.06-3.064,8.022-0.003,11.084s8.021,3.063,11.083,0.003
			c5.891-5.887,11.122-12.348,15.66-19.268C310.341,330.323,312.713,340.26,311.359,350.264z"/>
	</g>
</g>
<g>
	<g>
		<path d="M191.546,337.391c-0.003-0.022-0.005-0.044-0.008-0.066c-3.158-23.619-21.618-42.81-44.929-47.315
			c-5.972-1.155-12.127-1.333-18.154-0.507c-14.556,1.994-28.015,9.731-36.923,21.429c-9.062,11.899-12.947,26.615-10.941,41.436
			c2.007,14.821,9.665,27.974,21.564,37.034c9.835,7.489,21.554,11.449,33.888,11.449c17.652,0,33.902-8.045,44.583-22.073
			C189.547,367.064,193.522,351.978,191.546,337.391z M136.043,385.176c-8.874,0-17.308-2.852-24.391-8.245
			c-8.568-6.525-14.083-15.996-15.526-26.668c-1.353-9.997,1.016-19.928,6.685-28.188c15.171,23.179,37.754,40.384,64.056,48.802
			C159.187,379.986,148.07,385.176,136.043,385.176z M174.573,356.849c-25.096-7.232-46.563-23.585-60.285-45.924
			c4.803-3.087,10.219-5.111,15.893-5.948c0.096-0.014,0.192-0.028,0.288-0.042c15.765-2.178,31.652,5.309,39.958,18.878
			C176.448,333.647,177.994,345.83,174.573,356.849z"/>
	</g>
</g>
<g>
	<g>
		<path d="M109.619,167.943c-29.855-6.897-60.272,12.13-67.16,41.951c-6.867,29.723,12.288,60.308,41.952,67.161
			c29.851,6.896,60.271-12.129,67.161-41.952C158.444,205.355,139.293,174.799,109.619,167.943z M83.107,255.999
			c0,1.455,0.033,2.91,0.086,4.367c-8.426-3.056-15.55-8.786-20.373-16.507c-5.706-9.134-7.512-19.943-5.088-30.436
			c4.251-18.401,20.388-31.254,39.241-31.254c3.047,0,6.116,0.352,9.119,1.045c0.406,0.094,0.807,0.205,1.209,0.31
			C91.631,204.347,83.107,229.695,83.107,255.999z M136.886,228.432c-0.025,0.162-0.049,0.323-0.075,0.485
			c-3.029,18.587-18.962,32.969-37.814,33.853c-0.143-2.253-0.215-4.514-0.215-6.769c0-23.888,8.078-46.871,22.873-65.412
			C133.096,199.438,139.03,213.976,136.886,228.432z"/>
	</g>
</g>
<g>
	<g>
		<path d="M203.743,88.325c-30.875,0-55.994,25.118-55.994,55.994c0,15.564,6.784,30.82,18.253,41.326
			c10.213,9.355,23.892,14.667,37.742,14.667c16.438,0,32.555-7.581,43.094-20.269c8.267-9.951,12.898-22.789,12.898-35.725
			C259.735,113.443,234.617,88.325,203.743,88.325z M237.918,165.686c-2.642,4.21-6.06,7.899-10.019,10.871
			c-6.925,5.198-15.495,8.08-24.156,8.08c-7.441,0-14.89-2.092-21.201-6.044c-7.646-4.788-13.597-12.012-16.693-20.501
			c12.056-4.682,24.775-7.052,37.893-7.052c13.119,0,25.836,2.369,37.892,7.052C241.971,158.223,238.293,165.089,237.918,165.686z
			 M203.743,135.366c-13.889,0-27.386,2.323-40.267,6.897c1.073-21.281,18.724-38.263,40.267-38.263
			c21.542,0,39.192,16.983,40.266,38.263C231.128,137.689,217.63,135.366,203.743,135.366z"/>
	</g>
</g>
<g>
	<g>
		<path d="M504.163,335.214h-31.247c-3.841,0-7.672,0.17-11.385,0.505c-4.311,0.39-7.489,4.2-7.101,8.511
			c0.389,4.311,4.197,7.49,8.511,7.101c3.245-0.294,6.601-0.442,9.974-0.442h23.41v31.35h-23.41
			c-18.22,0-28.666,3.977-51.009,26.323c-22.898,22.897-53.34,35.506-85.719,35.506h-54.098c18.691-7.814,36.256-18.4,51.838-31.35
			h2.26c24.007,0,46.575-9.349,63.551-26.323c10.289-10.289,21.607-20.708,34.646-27.212c3.874-1.932,5.448-6.639,3.515-10.512
			c-1.933-3.874-6.637-5.447-10.513-3.515c-15.045,7.505-27.507,18.928-38.733,30.153c-10.134,10.134-22.69,16.955-36.355,19.966
			c34.203-36.459,55.185-85.459,55.185-139.275c0-112.344-91.398-203.742-203.742-203.742c-41.456,0-81.361,12.388-115.403,35.828
			c-3.566,2.455-4.465,7.335-2.012,10.9c2.456,3.564,7.335,4.465,10.9,2.011c31.416-21.63,68.248-33.063,106.515-33.063
			c103.7,0,188.067,84.366,188.067,188.067c0,72.781-41.56,136.036-102.193,167.287c-24.593,12.607-51.872,19.771-79.713,20.668
			c-2.046,0.066-4.098,0.112-6.16,0.112c-103.702,0-188.068-84.366-188.068-188.066c0-51.826,20.638-100.104,58.112-135.94
			c3.128-2.992,3.239-7.952,0.248-11.081c-2.993-3.129-7.953-3.239-11.081-0.248c-19.684,18.823-35.167,40.971-46.019,65.825
			C5.697,200.293,0,227.696,0,256.002c0,112.343,91.399,203.741,203.743,203.741c1.768,0,3.53-0.023,5.288-0.068
			c0.323,0.041,0.649,0.068,0.982,0.068h126.174c36.566,0,70.945-14.24,96.804-40.097c18.074-18.075,24.79-21.732,39.925-21.732
			h31.247c4.329,0,7.837-3.509,7.837-7.837v-47.025C512,338.723,508.492,335.214,504.163,335.214z"/>
	</g>
</g>
<g>
</g>
<g>
</g>
<g>
</g>
<g>
</g>
<g>
</g>
<g>
</g>
<g>
</g>
<g>
</g>
<g>
</g>
<g>
</g>
<g>
</g>
<g>
</g>
<g>
</g>
<g>
</g>
<g>
</g>
</svg>
