<?xml version="1.0" encoding="utf-8"?>

<svg version="1.1" id="Icons" xmlns="http://www.w3.org/2000/svg" xmlns:xlink="http://www.w3.org/1999/xlink" x="0px" y="0px"
	 viewBox="0 0 32 32" style="enable-background:new 0 0 32 32;" xml:space="preserve">
<g>
	<path d="M6,21c-2.8,0-5,2.2-5,5s2.2,5,5,5s5-2.2,5-5S8.8,21,6,21z"/>
	<path d="M5.8,1c-1.2,0-2.5,0.1-4,0.3C1.4,1.4,1,1.8,1,2.3v5.1c0,0.3,0.1,0.6,0.4,0.8s0.5,0.3,0.8,0.2c1.2-0.2,2.4-0.4,3.6-0.4
		c10,0,18.1,8.1,18.1,18.1c0,1.2-0.1,2.4-0.4,3.6c-0.1,0.3,0,0.6,0.2,0.8c0.2,0.2,0.5,0.4,0.8,0.4h5.1c0.5,0,0.9-0.4,1-0.8
		c0.2-1.4,0.3-2.7,0.3-4C31,12.3,19.7,1,5.8,1z"/>
	<path d="M5.9,11c-1.4,0-2.8,0.2-4.1,0.6c-0.4,0.1-0.7,0.5-0.7,1V18c0,0.3,0.2,0.7,0.5,0.8c0.3,0.2,0.7,0.2,1,0.1
		c1.1-0.5,2.2-0.8,3.4-0.8c4.4,0,8,3.6,8,8c0,1.2-0.3,2.3-0.8,3.4c-0.1,0.3-0.1,0.7,0.1,1c0.2,0.3,0.5,0.5,0.8,0.5h5.5
		c0.4,0,0.8-0.3,1-0.7c0.4-1.4,0.6-2.8,0.6-4.1C21,17.8,14.2,11,5.9,11z"/>
</g>
</svg>
