<?xml version="1.0" encoding="iso-8859-1"?>
<!-- Generator: Adobe Illustrator 17.1.0, SVG Export Plug-In . SVG Version: 6.00 Build 0)  -->
<!DOCTYPE svg PUBLIC "-//W3C//DTD SVG 1.1//EN" "http://www.w3.org/Graphics/SVG/1.1/DTD/svg11.dtd">
<svg version="1.1" id="Capa_1" xmlns="http://www.w3.org/2000/svg" xmlns:xlink="http://www.w3.org/1999/xlink" x="0px" y="0px"
	 viewBox="0 0 211.334 211.334" style="enable-background:new 0 0 211.334 211.334;" xml:space="preserve">
<path d="M188.805,96.394c-1.119,3.125-4.08,5.211-7.4,5.211h-78.743c-4.341,0-7.86-3.518-7.86-7.86V88.66H49.392v85.418
	c6.825,3.028,11.604,9.857,11.604,17.792c0,10.732-8.731,19.464-19.464,19.464s-19.464-8.731-19.464-19.464
	c0-7.935,4.779-14.765,11.604-17.792V80.8V21.95V7.86c0-4.341,3.519-7.86,7.86-7.86s7.86,3.518,7.86,7.86v6.231h70.883
	c4.341,0,7.86,3.518,7.86,7.86v5.085h53.27c3.32,0,6.281,2.086,7.4,5.211c1.119,3.126,0.152,6.617-2.414,8.723l-28.447,23.35
	l28.447,23.35C188.957,89.776,189.923,93.267,188.805,96.394z"/>
<g>
</g>
<g>
</g>
<g>
</g>
<g>
</g>
<g>
</g>
<g>
</g>
<g>
</g>
<g>
</g>
<g>
</g>
<g>
</g>
<g>
</g>
<g>
</g>
<g>
</g>
<g>
</g>
<g>
</g>
</svg>
