<?xml version="1.0" encoding="iso-8859-1"?>
<!-- Generator: Adobe Illustrator 19.0.0, SVG Export Plug-In . SVG Version: 6.00 Build 0)  -->
<svg version="1.1" id="Layer_1" xmlns="http://www.w3.org/2000/svg" xmlns:xlink="http://www.w3.org/1999/xlink" x="0px" y="0px"
	 viewBox="0 0 511.979 511.979" style="enable-background:new 0 0 511.979 511.979;" xml:space="preserve">
<g>
	<g>
		<path d="M501.333,266.656h-99.221c-14.869-72.939-79.488-128-156.779-128s-141.909,55.061-156.779,128H10.667
			C4.779,266.656,0,271.435,0,277.323c0,0.427,0.192,0.811,0.256,1.216c-0.747,5.333,2.453,10.517,7.787,11.861
			c42.667,10.731,77.291,51.392,77.291,72.256c0,5.781,4.608,10.517,10.389,10.667c6.144-0.192,10.624-4.352,10.923-10.112
			c0.64-11.861,0.427-27.968,0.213-43.456c-0.085-7.36-0.192-14.571-0.192-21.099c0-3.605,0.277-7.125,0.533-10.667h276.245
			c0.277,3.541,0.533,7.061,0.533,10.667l0.043,17.963c0.064,11.755,0.107,23.979-0.043,45.973
			c-0.043,5.461,4.075,10.091,9.515,10.667c0.405,0.043,0.768,0.064,1.152,0.064c4.992,0,9.365-3.477,10.432-8.448
			c9.28-43.84,50.645-76.885,96.235-76.885c5.888,0,10.667-4.779,10.667-10.667S507.221,266.656,501.333,266.656z M85.461,315.936
			c-8.789-10.325-19.797-19.968-31.936-27.947h32.363c-0.235,3.541-0.533,7.061-0.533,10.667
			C85.333,304.053,85.397,309.92,85.461,315.936z M110.528,266.656c7.36-31.019,25.131-57.984,49.451-77.077v77.077H110.528z
			 M234.667,266.656h-53.333v-90.88c16.171-8.469,34.219-13.76,53.333-15.232V266.656z M309.333,266.656H256V160.523
			c19.115,1.472,37.163,6.784,53.333,15.232V266.656z M330.667,266.656v-77.077c24.32,19.072,42.091,46.059,49.451,77.077H330.667z
			 M405.376,314.805l-0.043-16.149c0-3.605-0.299-7.125-0.533-10.667h29.056C422.997,295.392,413.312,304.416,405.376,314.805z"/>
	</g>
</g>
</svg>
