<?xml version="1.0" standalone="no"?>
<!DOCTYPE svg PUBLIC "-//W3C//DTD SVG 20010904//EN"
 "http://www.w3.org/TR/2001/REC-SVG-20010904/DTD/svg10.dtd">
<svg version="1.0" xmlns="http://www.w3.org/2000/svg"
 width="512.000000pt" height="512.000000pt" viewBox="0 0 512.000000 512.000000"
 preserveAspectRatio="xMidYMid meet">

<g transform="translate(0.000000,512.000000) scale(0.100000,-0.100000)">
<path d="M1648 5110 c-773 -81 -1413 -640 -1593 -1390 -38 -157 -48 -246 -49
-425 -1 -283 47 -516 156 -760 207 -461 610 -826 1088 -986 457 -152 943 -122
1375 86 l110 52 805 -802 c778 -774 807 -803 875 -833 39 -17 104 -37 145 -43
206 -32 413 76 505 265 70 142 69 294 -2 439 -34 68 -82 119 -836 874 l-800
801 30 54 c68 120 130 295 169 473 32 147 44 431 25 593 -87 742 -635 1368
-1361 1552 -192 49 -455 69 -642 50z m323 -515 c106 -8 266 -48 375 -95 171
-73 289 -153 424 -289 339 -342 462 -834 325 -1305 -138 -478 -557 -843 -1058
-922 -123 -20 -362 -14 -477 11 -357 78 -676 308 -862 620 -221 371 -240 870
-46 1255 69 137 136 228 253 346 188 189 401 307 652 359 85 18 247 34 303 29
19 -2 69 -6 111 -9z"/>
<path d="M999 3917 c-69 -46 -181 -216 -226 -342 -52 -147 -60 -350 -19 -508
31 -120 96 -247 177 -344 72 -87 114 -106 182 -82 55 19 81 57 81 119 0 44 -5
55 -42 97 -220 252 -227 577 -18 835 62 76 72 108 54 163 -26 78 -120 109
-189 62z"/>
</g>
</svg>
