<?xml version="1.0" standalone="no"?>
<!DOCTYPE svg PUBLIC "-//W3C//DTD SVG 20010904//EN"
 "http://www.w3.org/TR/2001/REC-SVG-20010904/DTD/svg10.dtd">
<svg version="1.0" xmlns="http://www.w3.org/2000/svg"
 width="512.000000pt" height="512.000000pt" viewBox="0 0 512.000000 512.000000"
 preserveAspectRatio="xMidYMid meet">

<g transform="translate(0.000000,512.000000) scale(0.100000,-0.100000)"
fill="#000000" stroke="none">
<path d="M3655 5104 c-220 -39 -413 -140 -571 -298 -215 -215 -328 -508 -311
-805 15 -260 110 -485 280 -667 134 -143 273 -233 453 -293 123 -41 231 -55
382 -48 474 20 858 334 984 805 29 110 36 327 14 445 -64 339 -296 639 -599
777 -200 90 -427 121 -632 84z"/>
<path d="M2110 4675 c-320 -51 -614 -205 -841 -443 -200 -208 -327 -447 -390
-737 -20 -92 -22 -140 -29 -590 -7 -446 -9 -499 -29 -587 -67 -305 -202 -541
-441 -772 -135 -130 -165 -189 -165 -321 0 -76 5 -99 27 -147 52 -111 162
-193 292 -217 80 -15 3539 -16 3616 -1 130 25 246 112 296 223 23 52 28 75 27
142 0 135 -23 177 -170 323 -68 68 -151 159 -183 203 -150 202 -243 442 -272
698 l-12 108 -94 7 c-610 43 -1130 444 -1321 1021 -54 164 -74 288 -74 465 0
204 33 376 107 561 14 36 26 69 26 72 0 12 -282 6 -370 -8z"/>
<path d="M1560 636 c0 -17 47 -151 67 -191 102 -202 287 -353 510 -417 102
-29 303 -31 403 -4 158 42 320 146 420 269 56 68 131 211 154 295 l15 52 -785
0 c-431 0 -784 -2 -784 -4z"/>
</g>
</svg>
